<svg width="40.000000" height="40.000000" viewBox="0 0 40 40" fill="none" xmlns="http://www.w3.org/2000/svg" xmlns:xlink="http://www.w3.org/1999/xlink">
	<desc>
			Created with Pixso.
	</desc>
	<defs>
		<clipPath id="clip1_15665">
			<rect id="akar-icons:gear" width="44.000000" height="44.000000" transform="translate(-2.000000 -2.000000)" fill="white" fill-opacity="0"/>
		</clipPath>
		<clipPath id="clip1_15669">
			<rect id="ph:gear-duotone" width="46.000000" height="46.000000" transform="translate(-3.000000 -3.000000)" fill="white" fill-opacity="0"/>
		</clipPath>
		<clipPath id="clip1_15662">
			<rect id="gear 1" width="40.000000" height="40.000000" fill="white" fill-opacity="0"/>
		</clipPath>
		<clipPath id="clip1_15673">
			<rect id="sedan-car-front 1" width="19.000000" height="26.000000" transform="translate(6.000000 7.000000)" fill="white" fill-opacity="0"/>
		</clipPath>
		<clipPath id="clip1_15660">
			<rect id="settings 1" width="40.000000" height="40.000000" fill="white" fill-opacity="0"/>
		</clipPath>
		<clipPath id="clip1_15630">
			<rect id="Frame" width="40.000000" height="40.000000" fill="white" fill-opacity="0"/>
		</clipPath>
	</defs>
	<g clip-path="url(#clip1_15630)">
		<rect id="settings 1" width="40.000000" height="40.000000" fill="#FFFFFF" fill-opacity="0"/>
		<g clip-path="url(#clip1_15660)">
			<rect id="gear 1" width="40.000000" height="40.000000" fill="#FFFFFF" fill-opacity="0"/>
			<g clip-path="url(#clip1_15662)">
				<path id="Vector" d="M39 16.27L37.5 16.09C36.25 15.94 35.24 15.02 34.76 13.86L34.76 13.86C34.28 12.7 34.36 11.36 35.14 10.37L36.07 9.18C36.41 8.75 36.37 8.08 35.97 7.69L32.3 4.01C31.91 3.62 31.24 3.58 30.8 3.92L29.61 4.85C28.62 5.63 27.28 5.71 26.12 5.23L26.12 5.23C24.96 4.75 24.04 3.74 23.9 2.49L23.72 0.99C23.65 0.44 23.15 0 22.59 0L17.39 0C16.84 0 16.34 0.44 16.27 0.99L16.09 2.49C15.94 3.74 15.02 4.75 13.86 5.23L13.86 5.23C12.7 5.71 11.36 5.63 10.37 4.86L9.18 3.92C8.75 3.58 8.08 3.62 7.69 4.01L4.01 7.69C3.62 8.08 3.58 8.75 3.92 9.19L4.86 10.37C5.63 11.36 5.71 12.7 5.23 13.87L5.23 13.87C4.75 15.03 3.74 15.95 2.49 16.1L0.99 16.28C0.44 16.34 0 16.84 0 17.4L0 22.6C0 23.15 0.44 23.65 0.99 23.72L2.49 23.9C3.74 24.05 4.75 24.97 5.23 26.13L5.23 26.13C5.71 27.29 5.64 28.63 4.86 29.62L3.93 30.81C3.59 31.24 3.63 31.91 4.02 32.3L7.69 35.98C8.08 36.37 8.75 36.41 9.18 36.07L10.37 35.14C11.36 34.36 12.7 34.28 13.86 34.76L13.86 34.76C15.03 35.25 15.94 36.25 16.09 37.5L16.27 39C16.34 39.55 16.84 40 17.39 40L22.6 40C23.15 40 23.65 39.55 23.72 39L23.9 37.5C24.05 36.25 24.97 35.24 26.13 34.76L26.13 34.76C27.29 34.28 28.63 34.36 29.62 35.14L30.81 36.07C31.24 36.41 31.91 36.37 32.3 35.98L35.98 32.3C36.37 31.91 36.41 31.24 36.07 30.8L35.14 29.62C34.36 28.63 34.28 27.28 34.76 26.12L34.76 26.12C35.24 24.96 36.25 24.05 37.5 23.9L39 23.72C39.55 23.65 40 23.15 40 22.6L40 17.39C40 16.84 39.55 16.34 39 16.27ZM20 29.99C14.47 29.99 10 25.52 10 20C10 14.47 14.47 10 20 10C25.52 10 30 14.47 30 20C30 25.52 25.52 29.99 20 29.99Z" fill="#2E1066" fill-opacity="1.000000" fill-rule="nonzero"/>
				<path id="Vector" d="M39 16.27L37.5 16.09C36.25 15.94 35.24 15.02 34.76 13.86L34.76 13.86C34.28 12.7 34.36 11.36 35.14 10.37L36.07 9.18C36.41 8.75 36.37 8.08 35.97 7.69L32.3 4.01C31.91 3.62 31.24 3.58 30.8 3.92L29.61 4.85C28.62 5.63 27.28 5.71 26.12 5.23L26.12 5.23C24.96 4.75 24.04 3.74 23.9 2.49L23.72 0.99C23.65 0.44 23.15 0 22.59 0L17.39 0C16.84 0 16.34 0.44 16.27 0.99L16.09 2.49C15.94 3.74 15.02 4.75 13.86 5.23L13.86 5.23C12.7 5.71 11.36 5.63 10.37 4.86L9.18 3.92C8.75 3.58 8.08 3.62 7.69 4.01L4.01 7.69C3.62 8.08 3.58 8.75 3.92 9.19L4.86 10.37C5.63 11.36 5.71 12.7 5.23 13.87L5.23 13.87C4.75 15.03 3.74 15.95 2.49 16.1L0.99 16.28C0.44 16.34 0 16.84 0 17.4L0 22.6C0 23.15 0.44 23.65 0.99 23.72L2.49 23.9C3.74 24.05 4.75 24.97 5.23 26.13L5.23 26.13C5.71 27.29 5.64 28.63 4.86 29.62L3.93 30.81C3.59 31.24 3.63 31.91 4.02 32.3L7.69 35.98C8.08 36.37 8.75 36.41 9.18 36.07L10.37 35.14C11.36 34.36 12.7 34.28 13.86 34.76L13.86 34.76C15.03 35.25 15.94 36.25 16.09 37.5L16.27 39C16.34 39.55 16.84 40 17.39 40L22.6 40C23.15 40 23.65 39.55 23.72 39L23.9 37.5C24.05 36.25 24.97 35.24 26.13 34.76L26.13 34.76C27.29 34.28 28.63 34.36 29.62 35.14L30.81 36.07C31.24 36.41 31.91 36.37 32.3 35.98L35.98 32.3C36.37 31.91 36.41 31.24 36.07 30.8L35.14 29.62C34.36 28.63 34.28 27.28 34.76 26.12L34.76 26.12C35.24 24.96 36.25 24.05 37.5 23.9L39 23.72C39.55 23.65 40 23.15 40 22.6L40 17.39C40 16.84 39.55 16.34 39 16.27ZM20 29.99C14.47 29.99 10 25.52 10 20C10 14.47 14.47 10 20 10C25.52 10 30 14.47 30 20C30 25.52 25.52 29.99 20 29.99Z" fill="#410F9E" fill-opacity="1.000000" fill-rule="nonzero"/>
				<path id="Vector" d="M39 16.27L37.5 16.09C36.25 15.94 35.24 15.02 34.76 13.86L34.76 13.86C34.28 12.7 34.36 11.36 35.14 10.37L36.07 9.18C36.41 8.75 36.37 8.08 35.97 7.69L32.3 4.01C31.91 3.62 31.24 3.58 30.8 3.92L29.61 4.85C28.62 5.63 27.28 5.71 26.12 5.23L26.12 5.23C24.96 4.75 24.04 3.74 23.9 2.49L23.72 0.99C23.65 0.44 23.15 0 22.59 0L17.39 0C16.84 0 16.34 0.44 16.27 0.99L16.09 2.49C15.94 3.74 15.02 4.75 13.86 5.23L13.86 5.23C12.7 5.71 11.36 5.63 10.37 4.86L9.18 3.92C8.75 3.58 8.08 3.62 7.69 4.01L4.01 7.69C3.62 8.08 3.58 8.75 3.92 9.19L4.86 10.37C5.63 11.36 5.71 12.7 5.23 13.87L5.23 13.87C4.75 15.03 3.74 15.95 2.49 16.1L0.99 16.28C0.44 16.34 0 16.84 0 17.4L0 22.6C0 23.15 0.44 23.65 0.99 23.72L2.49 23.9C3.74 24.05 4.75 24.97 5.23 26.13L5.23 26.13C5.71 27.29 5.64 28.63 4.86 29.62L3.93 30.81C3.59 31.24 3.63 31.91 4.02 32.3L7.69 35.98C8.08 36.37 8.75 36.41 9.18 36.07L10.37 35.14C11.36 34.36 12.7 34.28 13.86 34.76L13.86 34.76C15.03 35.25 15.94 36.25 16.09 37.5L16.27 39C16.34 39.55 16.84 40 17.39 40L22.6 40C23.15 40 23.65 39.55 23.72 39L23.9 37.5C24.05 36.25 24.97 35.24 26.13 34.76L26.13 34.76C27.29 34.28 28.63 34.36 29.62 35.14L30.81 36.07C31.24 36.41 31.91 36.37 32.3 35.98L35.98 32.3C36.37 31.91 36.41 31.24 36.07 30.8L35.14 29.62C34.36 28.63 34.28 27.28 34.76 26.12L34.76 26.12C35.24 24.96 36.25 24.05 37.5 23.9L39 23.72C39.55 23.65 40 23.15 40 22.6L40 17.39C40 16.84 39.55 16.34 39 16.27ZM20 29.99C14.47 29.99 10 25.52 10 20C10 14.47 14.47 10 20 10C25.52 10 30 14.47 30 20C30 25.52 25.52 29.99 20 29.99Z" fill="#453888" fill-opacity="1.000000" fill-rule="nonzero"/>
				<path id="Vector" d="M39 16.27L37.5 16.09C36.25 15.94 35.24 15.02 34.76 13.86L34.76 13.86C34.28 12.7 34.36 11.36 35.14 10.37L36.07 9.18C36.41 8.75 36.37 8.08 35.97 7.69L32.3 4.01C31.91 3.62 31.24 3.58 30.8 3.92L29.61 4.85C28.62 5.63 27.28 5.71 26.12 5.23L26.12 5.23C24.96 4.75 24.04 3.74 23.9 2.49L23.72 0.99C23.65 0.44 23.15 0 22.59 0L17.39 0C16.84 0 16.34 0.44 16.27 0.99L16.09 2.49C15.94 3.74 15.02 4.75 13.86 5.23L13.86 5.23C12.7 5.71 11.36 5.63 10.37 4.86L9.18 3.92C8.75 3.58 8.08 3.62 7.69 4.01L4.01 7.69C3.62 8.08 3.58 8.75 3.92 9.19L4.86 10.37C5.63 11.36 5.71 12.7 5.23 13.87L5.23 13.87C4.75 15.03 3.74 15.95 2.49 16.1L0.99 16.28C0.44 16.34 0 16.84 0 17.4L0 22.6C0 23.15 0.44 23.65 0.99 23.72L2.49 23.9C3.74 24.05 4.75 24.97 5.23 26.13L5.23 26.13C5.71 27.29 5.64 28.63 4.86 29.62L3.93 30.81C3.59 31.24 3.63 31.91 4.02 32.3L7.69 35.98C8.08 36.37 8.75 36.41 9.18 36.07L10.37 35.14C11.36 34.36 12.7 34.28 13.86 34.76L13.86 34.76C15.03 35.25 15.94 36.25 16.09 37.5L16.27 39C16.34 39.55 16.84 40 17.39 40L22.6 40C23.15 40 23.65 39.55 23.72 39L23.9 37.5C24.05 36.25 24.97 35.24 26.13 34.76L26.13 34.76C27.29 34.28 28.63 34.36 29.62 35.14L30.81 36.07C31.24 36.41 31.91 36.37 32.3 35.98L35.98 32.3C36.37 31.91 36.41 31.24 36.07 30.8L35.14 29.62C34.36 28.63 34.28 27.28 34.76 26.12L34.76 26.12C35.24 24.96 36.25 24.05 37.5 23.9L39 23.72C39.55 23.65 40 23.15 40 22.6L40 17.39C40 16.84 39.55 16.34 39 16.27ZM20 29.99C14.47 29.99 10 25.52 10 20C10 14.47 14.47 10 20 10C25.52 10 30 14.47 30 20C30 25.52 25.52 29.99 20 29.99Z" fill="#5946D7" fill-opacity="1.000000" fill-rule="nonzero"/>
				<path id="Vector" d="M0.24 23.29C0.09 23.09 0 22.85 0 22.6L0 17.4C0 17.15 0.09 16.9 0.24 16.71C0.42 16.48 0.69 16.31 0.99 16.28L2.49 16.1C3.49 15.98 4.33 15.37 4.88 14.53C4.95 14.42 5.01 14.31 5.07 14.2C5.13 14.09 5.18 13.98 5.23 13.87C5.27 13.76 5.31 13.65 5.34 13.55C5.38 13.42 5.42 13.3 5.44 13.17C5.65 12.19 5.48 11.17 4.86 10.37L3.92 9.19C3.74 8.95 3.67 8.65 3.7 8.35C3.73 8.11 3.83 7.87 4.01 7.69L7.69 4.01C7.87 3.83 8.11 3.73 8.35 3.7C8.65 3.67 8.95 3.74 9.18 3.92L10.37 4.86C11.17 5.48 12.19 5.65 13.17 5.44C13.3 5.42 13.42 5.38 13.55 5.34C13.65 5.31 13.76 5.27 13.86 5.23C13.97 5.18 14.08 5.13 14.19 5.07C14.31 5.01 14.42 4.95 14.53 4.88C15.36 4.33 15.97 3.49 16.09 2.49L16.27 0.99C16.31 0.69 16.47 0.42 16.71 0.24C16.9 0.09 17.14 0 17.39 0L22.59 0C22.84 0 23.08 0.09 23.28 0.24C23.51 0.42 23.68 0.69 23.72 0.99L23.9 2.49C24.01 3.49 24.62 4.33 25.46 4.88C25.57 4.95 25.68 5.01 25.79 5.07C25.9 5.13 26.01 5.18 26.12 5.23C26.23 5.27 26.33 5.31 26.44 5.34C26.57 5.38 26.69 5.42 26.82 5.44C27.8 5.65 28.82 5.48 29.61 4.85L30.8 3.92C31.04 3.73 31.34 3.66 31.64 3.7C31.88 3.73 32.12 3.83 32.3 4.01L34.03 5.74L34.26 5.97L35.97 7.69C36.15 7.87 36.26 8.1 36.29 8.35C36.32 8.64 36.25 8.95 36.07 9.18L35.14 10.37C34.51 11.16 34.34 12.19 34.54 13.16C34.57 13.29 34.6 13.42 34.64 13.54C34.68 13.65 34.72 13.76 34.76 13.86C34.81 13.98 34.86 14.09 34.92 14.19C34.98 14.31 35.04 14.42 35.11 14.53C35.66 15.36 36.5 15.97 37.5 16.09L39 16.27C39.3 16.31 39.57 16.48 39.75 16.71C39.9 16.9 40 17.14 40 17.39L40 22.6C40 22.85 39.9 23.09 39.75 23.28C39.57 23.51 39.3 23.68 39 23.72L37.5 23.9C36.5 24.02 35.66 24.63 35.11 25.46C35.04 25.57 34.98 25.68 34.91 25.79C34.86 25.9 34.81 26.01 34.76 26.12C34.72 26.23 34.68 26.34 34.65 26.44C34.6 26.57 34.57 26.7 34.54 26.83C34.34 27.8 34.51 28.82 35.14 29.62L36.07 30.8C36.25 31.04 36.33 31.35 36.29 31.64C36.26 31.89 36.16 32.12 35.98 32.3L32.3 35.98C32.12 36.16 31.88 36.26 31.64 36.29C31.34 36.33 31.04 36.25 30.81 36.07L29.62 35.14C28.82 34.51 27.8 34.34 26.82 34.55C26.7 34.57 26.57 34.61 26.45 34.65C26.34 34.68 26.23 34.72 26.13 34.76C26.01 34.81 25.9 34.86 25.8 34.92C25.68 34.98 25.57 35.04 25.46 35.11C24.63 35.66 24.01 36.5 23.9 37.5L23.72 39C23.68 39.3 23.52 39.57 23.29 39.75C23.09 39.9 22.85 40 22.6 40L17.39 40C17.14 40 16.9 39.9 16.7 39.75C16.47 39.57 16.31 39.3 16.27 39L16.09 37.5C15.98 36.5 15.36 35.66 14.53 35.12C14.42 35.05 14.31 34.98 14.19 34.92C14.09 34.86 13.98 34.81 13.86 34.76C13.76 34.72 13.65 34.68 13.55 34.65C13.42 34.61 13.3 34.58 13.17 34.55C12.19 34.34 11.17 34.51 10.37 35.14L9.18 36.07C8.95 36.25 8.65 36.33 8.36 36.3C8.11 36.27 7.87 36.16 7.69 35.98L4.02 32.3C3.84 32.12 3.74 31.89 3.71 31.64C3.67 31.35 3.74 31.04 3.93 30.81L4.86 29.62C5.48 28.82 5.65 27.8 5.45 26.83C5.42 26.7 5.39 26.57 5.35 26.45C5.31 26.34 5.27 26.23 5.23 26.13C5.18 26.01 5.13 25.91 5.08 25.8C5.02 25.68 4.95 25.57 4.88 25.46C4.34 24.63 3.49 24.02 2.49 23.9L0.99 23.72C0.69 23.68 0.42 23.52 0.24 23.29ZM10.54 23.25C10.67 23.64 10.83 24.02 11.01 24.39C11.99 26.38 13.61 28 15.6 28.98C15.97 29.16 16.35 29.32 16.75 29.45C17.77 29.8 18.86 29.99 20 29.99C21.13 29.99 22.22 29.81 23.24 29.46C23.64 29.32 24.02 29.16 24.39 28.98C26.38 28 28 26.38 28.98 24.39C29.16 24.02 29.32 23.64 29.46 23.24C29.79 22.28 29.98 21.25 30 20.17C30 20.11 30 20.06 30 20C30 19.93 30 19.87 30 19.81C29.98 18.74 29.79 17.71 29.46 16.75C29.32 16.35 29.16 15.97 28.98 15.6C28.51 14.63 27.89 13.76 27.15 13C27.09 12.95 27.04 12.9 26.99 12.85C26.23 12.1 25.35 11.48 24.39 11.01C24.02 10.83 23.64 10.67 23.24 10.53C22.25 10.19 21.19 10 20.09 10C20.06 10 20.03 10 20 10C19.97 10 19.94 10 19.91 10C18.8 10 17.74 10.19 16.75 10.53C16.35 10.67 15.97 10.83 15.6 11.01C13.61 11.99 11.99 13.61 11.01 15.6C10.83 15.97 10.67 16.35 10.54 16.75C10.19 17.77 10 18.86 10 20C10 21.13 10.19 22.23 10.54 23.25Z" fill="#2E1066" fill-opacity="1.000000" fill-rule="evenodd"/>
				<path id="Vector" d="M0.24 23.29C0.09 23.09 0 22.85 0 22.6L0 17.4C0 17.15 0.09 16.9 0.24 16.71C0.42 16.48 0.69 16.31 0.99 16.28L2.49 16.1C3.49 15.98 4.33 15.37 4.88 14.53C4.95 14.42 5.01 14.31 5.07 14.2C5.13 14.09 5.18 13.98 5.23 13.87C5.27 13.76 5.31 13.65 5.34 13.55C5.38 13.42 5.42 13.3 5.44 13.17C5.65 12.19 5.48 11.17 4.86 10.37L3.92 9.19C3.74 8.95 3.67 8.65 3.7 8.35C3.73 8.11 3.83 7.87 4.01 7.69L7.69 4.01C7.87 3.83 8.11 3.73 8.35 3.7C8.65 3.67 8.95 3.74 9.18 3.92L10.37 4.86C11.17 5.48 12.19 5.65 13.17 5.44C13.3 5.42 13.42 5.38 13.55 5.34C13.65 5.31 13.76 5.27 13.86 5.23C13.97 5.18 14.08 5.13 14.19 5.07C14.31 5.01 14.42 4.95 14.53 4.88C15.36 4.33 15.97 3.49 16.09 2.49L16.27 0.99C16.31 0.69 16.47 0.42 16.71 0.24C16.9 0.09 17.14 0 17.39 0L22.59 0C22.84 0 23.08 0.09 23.28 0.24C23.51 0.42 23.68 0.69 23.72 0.99L23.9 2.49C24.01 3.49 24.62 4.33 25.46 4.88C25.57 4.95 25.68 5.01 25.79 5.07C25.9 5.13 26.01 5.18 26.12 5.23C26.23 5.27 26.33 5.31 26.44 5.34C26.57 5.38 26.69 5.42 26.82 5.44C27.8 5.65 28.82 5.48 29.61 4.85L30.8 3.92C31.04 3.73 31.34 3.66 31.64 3.7C31.88 3.73 32.12 3.83 32.3 4.01L34.03 5.74L34.26 5.97L35.97 7.69C36.15 7.87 36.26 8.1 36.29 8.35C36.32 8.64 36.25 8.95 36.07 9.18L35.14 10.37C34.51 11.16 34.34 12.19 34.54 13.16C34.57 13.29 34.6 13.42 34.64 13.54C34.68 13.65 34.72 13.76 34.76 13.86C34.81 13.98 34.86 14.09 34.92 14.19C34.98 14.31 35.04 14.42 35.11 14.53C35.66 15.36 36.5 15.97 37.5 16.09L39 16.27C39.3 16.31 39.57 16.48 39.75 16.71C39.9 16.9 40 17.14 40 17.39L40 22.6C40 22.85 39.9 23.09 39.75 23.28C39.57 23.51 39.3 23.68 39 23.72L37.5 23.9C36.5 24.02 35.66 24.63 35.11 25.46C35.04 25.57 34.98 25.68 34.91 25.79C34.86 25.9 34.81 26.01 34.76 26.12C34.72 26.23 34.68 26.34 34.65 26.44C34.6 26.57 34.57 26.7 34.54 26.83C34.34 27.8 34.51 28.82 35.14 29.62L36.07 30.8C36.25 31.04 36.33 31.35 36.29 31.64C36.26 31.89 36.16 32.12 35.98 32.3L32.3 35.98C32.12 36.16 31.88 36.26 31.64 36.29C31.34 36.33 31.04 36.25 30.81 36.07L29.62 35.14C28.82 34.51 27.8 34.34 26.82 34.55C26.7 34.57 26.57 34.61 26.45 34.65C26.34 34.68 26.23 34.72 26.13 34.76C26.01 34.81 25.9 34.86 25.8 34.92C25.68 34.98 25.57 35.04 25.46 35.11C24.63 35.66 24.01 36.5 23.9 37.5L23.72 39C23.68 39.3 23.52 39.57 23.29 39.75C23.09 39.9 22.85 40 22.6 40L17.39 40C17.14 40 16.9 39.9 16.7 39.75C16.47 39.57 16.31 39.3 16.27 39L16.09 37.5C15.98 36.5 15.36 35.66 14.53 35.12C14.42 35.05 14.31 34.98 14.19 34.92C14.09 34.86 13.98 34.81 13.86 34.76C13.76 34.72 13.65 34.68 13.55 34.65C13.42 34.61 13.3 34.58 13.17 34.55C12.19 34.34 11.17 34.51 10.37 35.14L9.18 36.07C8.95 36.25 8.65 36.33 8.36 36.3C8.11 36.27 7.87 36.16 7.69 35.98L4.02 32.3C3.84 32.12 3.74 31.89 3.71 31.64C3.67 31.35 3.74 31.04 3.93 30.81L4.86 29.62C5.48 28.82 5.65 27.8 5.45 26.83C5.42 26.7 5.39 26.57 5.35 26.45C5.31 26.34 5.27 26.23 5.23 26.13C5.18 26.01 5.13 25.91 5.08 25.8C5.02 25.68 4.95 25.57 4.88 25.46C4.34 24.63 3.49 24.02 2.49 23.9L0.99 23.72C0.69 23.68 0.42 23.52 0.24 23.29ZM10.54 23.25C10.67 23.64 10.83 24.02 11.01 24.39C11.99 26.38 13.61 28 15.6 28.98C15.97 29.16 16.35 29.32 16.75 29.45C17.77 29.8 18.86 29.99 20 29.99C21.13 29.99 22.22 29.81 23.24 29.46C23.64 29.32 24.02 29.16 24.39 28.98C26.38 28 28 26.38 28.98 24.39C29.16 24.02 29.32 23.64 29.46 23.24C29.79 22.28 29.98 21.25 30 20.17C30 20.11 30 20.06 30 20C30 19.93 30 19.87 30 19.81C29.98 18.74 29.79 17.71 29.46 16.75C29.32 16.35 29.16 15.97 28.98 15.6C28.51 14.63 27.89 13.76 27.15 13C27.09 12.95 27.04 12.9 26.99 12.85C26.23 12.1 25.35 11.48 24.39 11.01C24.02 10.83 23.64 10.67 23.24 10.53C22.25 10.19 21.19 10 20.09 10C20.06 10 20.03 10 20 10C19.97 10 19.94 10 19.91 10C18.8 10 17.74 10.19 16.75 10.53C16.35 10.67 15.97 10.83 15.6 11.01C13.61 11.99 11.99 13.61 11.01 15.6C10.83 15.97 10.67 16.35 10.54 16.75C10.19 17.77 10 18.86 10 20C10 21.13 10.19 22.23 10.54 23.25Z" fill="#410F9E" fill-opacity="1.000000" fill-rule="evenodd"/>
				<path id="Vector" d="M0.24 23.29C0.09 23.09 0 22.85 0 22.6L0 17.4C0 17.15 0.09 16.9 0.24 16.71C0.42 16.48 0.69 16.31 0.99 16.28L2.49 16.1C3.49 15.98 4.33 15.37 4.88 14.53C4.95 14.42 5.01 14.31 5.07 14.2C5.13 14.09 5.18 13.98 5.23 13.87C5.27 13.76 5.31 13.65 5.34 13.55C5.38 13.42 5.42 13.3 5.44 13.17C5.65 12.19 5.48 11.17 4.86 10.37L3.92 9.19C3.74 8.95 3.67 8.65 3.7 8.35C3.73 8.11 3.83 7.87 4.01 7.69L7.69 4.01C7.87 3.83 8.11 3.73 8.35 3.7C8.65 3.67 8.95 3.74 9.18 3.92L10.37 4.86C11.17 5.48 12.19 5.65 13.17 5.44C13.3 5.42 13.42 5.38 13.55 5.34C13.65 5.31 13.76 5.27 13.86 5.23C13.97 5.18 14.08 5.13 14.19 5.07C14.31 5.01 14.42 4.95 14.53 4.88C15.36 4.33 15.97 3.49 16.09 2.49L16.27 0.99C16.31 0.69 16.47 0.42 16.71 0.24C16.9 0.09 17.14 0 17.39 0L22.59 0C22.84 0 23.08 0.09 23.28 0.24C23.51 0.42 23.68 0.69 23.72 0.99L23.9 2.49C24.01 3.49 24.62 4.33 25.46 4.88C25.57 4.95 25.68 5.01 25.79 5.07C25.9 5.13 26.01 5.18 26.12 5.23C26.23 5.27 26.33 5.31 26.44 5.34C26.57 5.38 26.69 5.42 26.82 5.44C27.8 5.65 28.82 5.48 29.61 4.85L30.8 3.92C31.04 3.73 31.34 3.66 31.64 3.7C31.88 3.73 32.12 3.83 32.3 4.01L34.03 5.74L34.26 5.97L35.97 7.69C36.15 7.87 36.26 8.1 36.29 8.35C36.32 8.64 36.25 8.95 36.07 9.18L35.14 10.37C34.51 11.16 34.34 12.19 34.54 13.16C34.57 13.29 34.6 13.42 34.64 13.54C34.68 13.65 34.72 13.76 34.76 13.86C34.81 13.98 34.86 14.09 34.92 14.19C34.98 14.31 35.04 14.42 35.11 14.53C35.66 15.36 36.5 15.97 37.5 16.09L39 16.27C39.3 16.31 39.57 16.48 39.75 16.71C39.9 16.9 40 17.14 40 17.39L40 22.6C40 22.85 39.9 23.09 39.75 23.28C39.57 23.51 39.3 23.68 39 23.72L37.5 23.9C36.5 24.02 35.66 24.63 35.11 25.46C35.04 25.57 34.98 25.68 34.91 25.79C34.86 25.9 34.81 26.01 34.76 26.12C34.72 26.23 34.68 26.34 34.65 26.44C34.6 26.57 34.57 26.7 34.54 26.83C34.34 27.8 34.51 28.82 35.14 29.62L36.07 30.8C36.25 31.04 36.33 31.35 36.29 31.64C36.26 31.89 36.16 32.12 35.98 32.3L32.3 35.98C32.12 36.16 31.88 36.26 31.64 36.29C31.34 36.33 31.04 36.25 30.81 36.07L29.62 35.14C28.82 34.51 27.8 34.34 26.82 34.55C26.7 34.57 26.57 34.61 26.45 34.65C26.34 34.68 26.23 34.72 26.13 34.76C26.01 34.81 25.9 34.86 25.8 34.92C25.68 34.98 25.57 35.04 25.46 35.11C24.63 35.66 24.01 36.5 23.9 37.5L23.72 39C23.68 39.3 23.52 39.57 23.29 39.75C23.09 39.9 22.85 40 22.6 40L17.39 40C17.14 40 16.9 39.9 16.7 39.75C16.47 39.57 16.31 39.3 16.27 39L16.09 37.5C15.98 36.5 15.36 35.66 14.53 35.12C14.42 35.05 14.31 34.98 14.19 34.92C14.09 34.86 13.98 34.81 13.86 34.76C13.76 34.72 13.65 34.68 13.55 34.65C13.42 34.61 13.3 34.58 13.17 34.55C12.19 34.34 11.17 34.51 10.37 35.14L9.18 36.07C8.95 36.25 8.65 36.33 8.36 36.3C8.11 36.27 7.87 36.16 7.69 35.98L4.02 32.3C3.84 32.12 3.74 31.89 3.71 31.64C3.67 31.35 3.74 31.04 3.93 30.81L4.86 29.62C5.48 28.82 5.65 27.8 5.45 26.83C5.42 26.7 5.39 26.57 5.35 26.45C5.31 26.34 5.27 26.23 5.23 26.13C5.18 26.01 5.13 25.91 5.08 25.8C5.02 25.68 4.95 25.57 4.88 25.46C4.34 24.63 3.49 24.02 2.49 23.9L0.99 23.72C0.69 23.68 0.42 23.52 0.24 23.29ZM10.54 23.25C10.67 23.64 10.83 24.02 11.01 24.39C11.99 26.38 13.61 28 15.6 28.98C15.97 29.16 16.35 29.32 16.75 29.45C17.77 29.8 18.86 29.99 20 29.99C21.13 29.99 22.22 29.81 23.24 29.46C23.64 29.32 24.02 29.16 24.39 28.98C26.38 28 28 26.38 28.98 24.39C29.16 24.02 29.32 23.64 29.46 23.24C29.79 22.28 29.98 21.25 30 20.17C30 20.11 30 20.06 30 20C30 19.93 30 19.87 30 19.81C29.98 18.74 29.79 17.71 29.46 16.75C29.32 16.35 29.16 15.97 28.98 15.6C28.51 14.63 27.89 13.76 27.15 13C27.09 12.95 27.04 12.9 26.99 12.85C26.23 12.1 25.35 11.48 24.39 11.01C24.02 10.83 23.64 10.67 23.24 10.53C22.25 10.19 21.19 10 20.09 10C20.06 10 20.03 10 20 10C19.97 10 19.94 10 19.91 10C18.8 10 17.74 10.19 16.75 10.53C16.35 10.67 15.97 10.83 15.6 11.01C13.61 11.99 11.99 13.61 11.01 15.6C10.83 15.97 10.67 16.35 10.54 16.75C10.19 17.77 10 18.86 10 20C10 21.13 10.19 22.23 10.54 23.25Z" fill="#453888" fill-opacity="1.000000" fill-rule="evenodd"/>
				<path id="Vector" d="M0.24 23.29C0.09 23.09 0 22.85 0 22.6L0 17.4C0 17.15 0.09 16.9 0.24 16.71C0.42 16.48 0.69 16.31 0.99 16.28L2.49 16.1C3.49 15.98 4.33 15.37 4.88 14.53C4.95 14.42 5.01 14.31 5.07 14.2C5.13 14.09 5.18 13.98 5.23 13.87C5.27 13.76 5.31 13.65 5.34 13.55C5.38 13.42 5.42 13.3 5.44 13.17C5.65 12.19 5.48 11.17 4.86 10.37L3.92 9.19C3.74 8.95 3.67 8.65 3.7 8.35C3.73 8.11 3.83 7.87 4.01 7.69L7.69 4.01C7.87 3.83 8.11 3.73 8.35 3.7C8.65 3.67 8.95 3.74 9.18 3.92L10.37 4.86C11.17 5.48 12.19 5.65 13.17 5.44C13.3 5.42 13.42 5.38 13.55 5.34C13.65 5.31 13.76 5.27 13.86 5.23C13.97 5.18 14.08 5.13 14.19 5.07C14.31 5.01 14.42 4.95 14.53 4.88C15.36 4.33 15.97 3.49 16.09 2.49L16.27 0.99C16.31 0.69 16.47 0.42 16.71 0.24C16.9 0.09 17.14 0 17.39 0L22.59 0C22.84 0 23.08 0.09 23.28 0.24C23.51 0.42 23.68 0.69 23.72 0.99L23.9 2.49C24.01 3.49 24.62 4.33 25.46 4.88C25.57 4.95 25.68 5.01 25.79 5.07C25.9 5.13 26.01 5.18 26.12 5.23C26.23 5.27 26.33 5.31 26.44 5.34C26.57 5.38 26.69 5.42 26.82 5.44C27.8 5.65 28.82 5.48 29.61 4.85L30.8 3.92C31.04 3.73 31.34 3.66 31.64 3.7C31.88 3.73 32.12 3.83 32.3 4.01L34.03 5.74L34.26 5.97L35.97 7.69C36.15 7.87 36.26 8.1 36.29 8.35C36.32 8.64 36.25 8.95 36.07 9.18L35.14 10.37C34.51 11.16 34.34 12.19 34.54 13.16C34.57 13.29 34.6 13.42 34.64 13.54C34.68 13.65 34.72 13.76 34.76 13.86C34.81 13.98 34.86 14.09 34.92 14.19C34.98 14.31 35.04 14.42 35.11 14.53C35.66 15.36 36.5 15.97 37.5 16.09L39 16.27C39.3 16.31 39.57 16.48 39.75 16.71C39.9 16.9 40 17.14 40 17.39L40 22.6C40 22.85 39.9 23.09 39.75 23.28C39.57 23.51 39.3 23.68 39 23.72L37.5 23.9C36.5 24.02 35.66 24.63 35.11 25.46C35.04 25.57 34.98 25.68 34.91 25.79C34.86 25.9 34.81 26.01 34.76 26.12C34.72 26.23 34.68 26.34 34.65 26.44C34.6 26.57 34.57 26.7 34.54 26.83C34.34 27.8 34.51 28.82 35.14 29.62L36.07 30.8C36.25 31.04 36.33 31.35 36.29 31.64C36.26 31.89 36.16 32.12 35.98 32.3L32.3 35.98C32.12 36.16 31.88 36.26 31.64 36.29C31.34 36.33 31.04 36.25 30.81 36.07L29.62 35.14C28.82 34.51 27.8 34.34 26.82 34.55C26.7 34.57 26.57 34.61 26.45 34.65C26.34 34.68 26.23 34.72 26.13 34.76C26.01 34.81 25.9 34.86 25.8 34.92C25.68 34.98 25.57 35.04 25.46 35.11C24.63 35.66 24.01 36.5 23.9 37.5L23.72 39C23.68 39.3 23.52 39.57 23.29 39.75C23.09 39.9 22.85 40 22.6 40L17.39 40C17.14 40 16.9 39.9 16.7 39.75C16.47 39.57 16.31 39.3 16.27 39L16.09 37.5C15.98 36.5 15.36 35.66 14.53 35.12C14.42 35.05 14.31 34.98 14.19 34.92C14.09 34.86 13.98 34.81 13.86 34.76C13.76 34.72 13.65 34.68 13.55 34.65C13.42 34.61 13.3 34.58 13.17 34.55C12.19 34.34 11.17 34.51 10.37 35.14L9.18 36.07C8.95 36.25 8.65 36.33 8.36 36.3C8.11 36.27 7.87 36.16 7.69 35.98L4.02 32.3C3.84 32.12 3.74 31.89 3.71 31.64C3.67 31.35 3.74 31.04 3.93 30.81L4.86 29.62C5.48 28.82 5.65 27.8 5.45 26.83C5.42 26.7 5.39 26.57 5.35 26.45C5.31 26.34 5.27 26.23 5.23 26.13C5.18 26.01 5.13 25.91 5.08 25.8C5.02 25.68 4.95 25.57 4.88 25.46C4.34 24.63 3.49 24.02 2.49 23.9L0.99 23.72C0.69 23.68 0.42 23.52 0.24 23.29ZM10.54 23.25C10.67 23.64 10.83 24.02 11.01 24.39C11.99 26.38 13.61 28 15.6 28.98C15.97 29.16 16.35 29.32 16.75 29.45C17.77 29.8 18.86 29.99 20 29.99C21.13 29.99 22.22 29.81 23.24 29.46C23.64 29.32 24.02 29.16 24.39 28.98C26.38 28 28 26.38 28.98 24.39C29.16 24.02 29.32 23.64 29.46 23.24C29.79 22.28 29.98 21.25 30 20.17C30 20.11 30 20.06 30 20C30 19.93 30 19.87 30 19.81C29.98 18.74 29.79 17.71 29.46 16.75C29.32 16.35 29.16 15.97 28.98 15.6C28.51 14.63 27.89 13.76 27.15 13C27.09 12.95 27.04 12.9 26.99 12.85C26.23 12.1 25.35 11.48 24.39 11.01C24.02 10.83 23.64 10.67 23.24 10.53C22.25 10.19 21.19 10 20.09 10C20.06 10 20.03 10 20 10C19.97 10 19.94 10 19.91 10C18.8 10 17.74 10.19 16.75 10.53C16.35 10.67 15.97 10.83 15.6 11.01C13.61 11.99 11.99 13.61 11.01 15.6C10.83 15.97 10.67 16.35 10.54 16.75C10.19 17.77 10 18.86 10 20C10 21.13 10.19 22.23 10.54 23.25Z" fill="#5946D7" fill-opacity="1.000000" fill-rule="evenodd"/>
			</g>
			<circle id="Ellipse 116" cx="20.000000" cy="20.000000" r="16.000000" fill="#FFFFFF" fill-opacity="1.000000"/>
			<circle id="Ellipse 116" cx="20.000000" cy="20.000000" r="14.000000" stroke="#2E1066" stroke-opacity="1.000000" stroke-width="4.000000"/>
			<circle id="Ellipse 116" cx="20.000000" cy="20.000000" r="14.000000" stroke="#410F9E" stroke-opacity="1.000000" stroke-width="4.000000"/>
			<circle id="Ellipse 116" cx="20.000000" cy="20.000000" r="14.000000" stroke="#453888" stroke-opacity="1.000000" stroke-width="4.000000"/>
			<circle id="Ellipse 116" cx="20.000000" cy="20.000000" r="14.000000" stroke="#5946D7" stroke-opacity="1.000000" stroke-width="4.000000"/>
			<rect id="sedan-car-front 1" width="19.000000" height="26.000000" transform="translate(6.000000 7.000000)" fill="#FFFFFF" fill-opacity="0"/>
			<g clip-path="url(#clip1_15673)">
				<path id="Vector" d="M23.37 16.86C23.39 16.88 23.41 16.9 23.42 16.92C24.37 17.75 25 19.3 24.99 20.42L24.99 23.75C24.99 24.56 24.68 25.29 24.18 25.84L24.18 27.13C24.18 27.89 23.57 28.5 22.81 28.5L21.15 28.5C20.39 28.5 19.77 27.89 19.77 27.13L19.77 26.8L4.88 26.8L4.88 27.13C4.88 27.89 4.27 28.5 3.51 28.5L1.85 28.5C1.09 28.5 0.47 27.89 0.47 27.13L0.47 25.84C-0.03 25.29 -0.34 24.56 -0.34 23.75L-0.34 20.42C-0.34 19.3 0.28 17.75 1.23 16.92C1.25 16.9 1.26 16.88 1.28 16.86L2.17 15.98C1.43 15.81 0.64 15.17 0.64 14.53C0.64 13.77 1.66 13.5 2.54 13.5C3.45 13.5 3.56 14.14 3.57 14.6L5.86 12.33C6.32 11.86 7.21 11.49 7.87 11.49L16.79 11.49C17.45 11.49 18.33 11.86 18.8 12.33L21.09 14.6C21.1 14.14 21.2 13.5 22.12 13.5C22.99 13.5 24.01 13.77 24.01 14.53C24.01 15.17 23.22 15.81 22.49 15.98L23.37 16.86ZM7.87 12.85C7.58 12.85 7.02 13.06 6.7 13.34L3.7 16.33L20 16.33L17.67 13.5C17.41 13.28 17.03 13.31 16.74 13.33C16.67 13.33 16.6 13.34 16.54 13.34L12.63 13.34L11 13L7.87 12.85ZM2.09 18.43C1.32 18.43 0.69 19.09 0.69 19.91C0.69 20.74 1.32 21.4 2.09 21.4C2.19 21.4 2.33 21.4 2.48 21.41C3.49 21.43 5.38 21.48 5.38 20.77C5.38 19.95 2.86 18.43 2.09 18.43ZM22.17 21.41C22.33 21.4 22.46 21.4 22.57 21.4C23.34 21.4 23.96 20.73 23.96 19.91C23.96 19.09 23.34 18.43 22.57 18.43C21.8 18.43 19.27 19.95 19.27 20.77C19.27 21.48 21.17 21.43 22.17 21.41ZM12.33 22.81L16.54 22.81C17.42 22.81 18.14 21.7 18.14 20.33L6.52 20.33C6.52 21.7 7.23 22.81 8.11 22.81L12.33 22.81ZM4.62 25.34L4.88 25.34L6.1 25.34L4.3 23.22L1.61 23.22C1.61 23.22 1.2 23.75 1.4 24.32C1.43 24.41 1.48 24.5 1.54 24.59C1.61 24.68 1.69 24.77 1.81 24.86C2.02 25.04 2.33 25.2 2.77 25.34L4.35 25.34L4.62 25.34ZM23.11 24.59C23.18 24.5 23.23 24.41 23.26 24.32C23.46 23.75 23.05 23.22 23.05 23.22L20.35 23.22L18.56 25.34L20.3 25.34L21.88 25.34C22.32 25.2 22.63 25.04 22.85 24.86C22.96 24.78 23.05 24.68 23.11 24.59Z" fill="#2E1066" fill-opacity="1.000000" fill-rule="evenodd"/>
				<path id="Vector" d="M23.37 16.86C23.39 16.88 23.41 16.9 23.42 16.92C24.37 17.75 25 19.3 24.99 20.42L24.99 23.75C24.99 24.56 24.68 25.29 24.18 25.84L24.18 27.13C24.18 27.89 23.57 28.5 22.81 28.5L21.15 28.5C20.39 28.5 19.77 27.89 19.77 27.13L19.77 26.8L4.88 26.8L4.88 27.13C4.88 27.89 4.27 28.5 3.51 28.5L1.85 28.5C1.09 28.5 0.47 27.89 0.47 27.13L0.47 25.84C-0.03 25.29 -0.34 24.56 -0.34 23.75L-0.34 20.42C-0.34 19.3 0.28 17.75 1.23 16.92C1.25 16.9 1.26 16.88 1.28 16.86L2.17 15.98C1.43 15.81 0.64 15.17 0.64 14.53C0.64 13.77 1.66 13.5 2.54 13.5C3.45 13.5 3.56 14.14 3.57 14.6L5.86 12.33C6.32 11.86 7.21 11.49 7.87 11.49L16.79 11.49C17.45 11.49 18.33 11.86 18.8 12.33L21.09 14.6C21.1 14.14 21.2 13.5 22.12 13.5C22.99 13.5 24.01 13.77 24.01 14.53C24.01 15.17 23.22 15.81 22.49 15.98L23.37 16.86ZM7.87 12.85C7.58 12.85 7.02 13.06 6.7 13.34L3.7 16.33L20 16.33L17.67 13.5C17.41 13.28 17.03 13.31 16.74 13.33C16.67 13.33 16.6 13.34 16.54 13.34L12.63 13.34L11 13L7.87 12.85ZM2.09 18.43C1.32 18.43 0.69 19.09 0.69 19.91C0.69 20.74 1.32 21.4 2.09 21.4C2.19 21.4 2.33 21.4 2.48 21.41C3.49 21.43 5.38 21.48 5.38 20.77C5.38 19.95 2.86 18.43 2.09 18.43ZM22.17 21.41C22.33 21.4 22.46 21.4 22.57 21.4C23.34 21.4 23.96 20.73 23.96 19.91C23.96 19.09 23.34 18.43 22.57 18.43C21.8 18.43 19.27 19.95 19.27 20.77C19.27 21.48 21.17 21.43 22.17 21.41ZM12.33 22.81L16.54 22.81C17.42 22.81 18.14 21.7 18.14 20.33L6.52 20.33C6.52 21.7 7.23 22.81 8.11 22.81L12.33 22.81ZM4.62 25.34L4.88 25.34L6.1 25.34L4.3 23.22L1.61 23.22C1.61 23.22 1.2 23.75 1.4 24.32C1.43 24.41 1.48 24.5 1.54 24.59C1.61 24.68 1.69 24.77 1.81 24.86C2.02 25.04 2.33 25.2 2.77 25.34L4.35 25.34L4.62 25.34ZM23.11 24.59C23.18 24.5 23.23 24.41 23.26 24.32C23.46 23.75 23.05 23.22 23.05 23.22L20.35 23.22L18.56 25.34L20.3 25.34L21.88 25.34C22.32 25.2 22.63 25.04 22.85 24.86C22.96 24.78 23.05 24.68 23.11 24.59Z" fill="#410F9E" fill-opacity="1.000000" fill-rule="evenodd"/>
				<path id="Vector" d="M23.37 16.86C23.39 16.88 23.41 16.9 23.42 16.92C24.37 17.75 25 19.3 24.99 20.42L24.99 23.75C24.99 24.56 24.68 25.29 24.18 25.84L24.18 27.13C24.18 27.89 23.57 28.5 22.81 28.5L21.15 28.5C20.39 28.5 19.77 27.89 19.77 27.13L19.77 26.8L4.88 26.8L4.88 27.13C4.88 27.89 4.27 28.5 3.51 28.5L1.85 28.5C1.09 28.5 0.47 27.89 0.47 27.13L0.47 25.84C-0.03 25.29 -0.34 24.56 -0.34 23.75L-0.34 20.42C-0.34 19.3 0.28 17.75 1.23 16.92C1.25 16.9 1.26 16.88 1.28 16.86L2.17 15.98C1.43 15.81 0.64 15.17 0.64 14.53C0.64 13.77 1.66 13.5 2.54 13.5C3.45 13.5 3.56 14.14 3.57 14.6L5.86 12.33C6.32 11.86 7.21 11.49 7.87 11.49L16.79 11.49C17.45 11.49 18.33 11.86 18.8 12.33L21.09 14.6C21.1 14.14 21.2 13.5 22.12 13.5C22.99 13.5 24.01 13.77 24.01 14.53C24.01 15.17 23.22 15.81 22.49 15.98L23.37 16.86ZM7.87 12.85C7.58 12.85 7.02 13.06 6.7 13.34L3.7 16.33L20 16.33L17.67 13.5C17.41 13.28 17.03 13.31 16.74 13.33C16.67 13.33 16.6 13.34 16.54 13.34L12.63 13.34L11 13L7.87 12.85ZM2.09 18.43C1.32 18.43 0.69 19.09 0.69 19.91C0.69 20.74 1.32 21.4 2.09 21.4C2.19 21.4 2.33 21.4 2.48 21.41C3.49 21.43 5.38 21.48 5.38 20.77C5.38 19.95 2.86 18.43 2.09 18.43ZM22.17 21.41C22.33 21.4 22.46 21.4 22.57 21.4C23.34 21.4 23.96 20.73 23.96 19.91C23.96 19.09 23.34 18.43 22.57 18.43C21.8 18.43 19.27 19.95 19.27 20.77C19.27 21.48 21.17 21.43 22.17 21.41ZM12.33 22.81L16.54 22.81C17.42 22.81 18.14 21.7 18.14 20.33L6.52 20.33C6.52 21.7 7.23 22.81 8.11 22.81L12.33 22.81ZM4.62 25.34L4.88 25.34L6.1 25.34L4.3 23.22L1.61 23.22C1.61 23.22 1.2 23.75 1.4 24.32C1.43 24.41 1.48 24.5 1.54 24.59C1.61 24.68 1.69 24.77 1.81 24.86C2.02 25.04 2.33 25.2 2.77 25.34L4.35 25.34L4.62 25.34ZM23.11 24.59C23.18 24.5 23.23 24.41 23.26 24.32C23.46 23.75 23.05 23.22 23.05 23.22L20.35 23.22L18.56 25.34L20.3 25.34L21.88 25.34C22.32 25.2 22.63 25.04 22.85 24.86C22.96 24.78 23.05 24.68 23.11 24.59Z" fill="#453888" fill-opacity="1.000000" fill-rule="evenodd"/>
				<path id="Vector" d="M23.37 16.86C23.39 16.88 23.41 16.9 23.42 16.92C24.37 17.75 25 19.3 24.99 20.42L24.99 23.75C24.99 24.56 24.68 25.29 24.18 25.84L24.18 27.13C24.18 27.89 23.57 28.5 22.81 28.5L21.15 28.5C20.39 28.5 19.77 27.89 19.77 27.13L19.77 26.8L4.88 26.8L4.88 27.13C4.88 27.89 4.27 28.5 3.51 28.5L1.85 28.5C1.09 28.5 0.47 27.89 0.47 27.13L0.47 25.84C-0.03 25.29 -0.34 24.56 -0.34 23.75L-0.34 20.42C-0.34 19.3 0.28 17.75 1.23 16.92C1.25 16.9 1.26 16.88 1.28 16.86L2.17 15.98C1.43 15.81 0.64 15.17 0.64 14.53C0.64 13.77 1.66 13.5 2.54 13.5C3.45 13.5 3.56 14.14 3.57 14.6L5.86 12.33C6.32 11.86 7.21 11.49 7.87 11.49L16.79 11.49C17.45 11.49 18.33 11.86 18.8 12.33L21.09 14.6C21.1 14.14 21.2 13.5 22.12 13.5C22.99 13.5 24.01 13.77 24.01 14.53C24.01 15.17 23.22 15.81 22.49 15.98L23.37 16.86ZM7.87 12.85C7.58 12.85 7.02 13.06 6.7 13.34L3.7 16.33L20 16.33L17.67 13.5C17.41 13.28 17.03 13.31 16.74 13.33C16.67 13.33 16.6 13.34 16.54 13.34L12.63 13.34L11 13L7.87 12.85ZM2.09 18.43C1.32 18.43 0.69 19.09 0.69 19.91C0.69 20.74 1.32 21.4 2.09 21.4C2.19 21.4 2.33 21.4 2.48 21.41C3.49 21.43 5.38 21.48 5.38 20.77C5.38 19.95 2.86 18.43 2.09 18.43ZM22.17 21.41C22.33 21.4 22.46 21.4 22.57 21.4C23.34 21.4 23.96 20.73 23.96 19.91C23.96 19.09 23.34 18.43 22.57 18.43C21.8 18.43 19.27 19.95 19.27 20.77C19.27 21.48 21.17 21.43 22.17 21.41ZM12.33 22.81L16.54 22.81C17.42 22.81 18.14 21.7 18.14 20.33L6.52 20.33C6.52 21.7 7.23 22.81 8.11 22.81L12.33 22.81ZM4.62 25.34L4.88 25.34L6.1 25.34L4.3 23.22L1.61 23.22C1.61 23.22 1.2 23.75 1.4 24.32C1.43 24.41 1.48 24.5 1.54 24.59C1.61 24.68 1.69 24.77 1.81 24.86C2.02 25.04 2.33 25.2 2.77 25.34L4.35 25.34L4.62 25.34ZM23.11 24.59C23.18 24.5 23.23 24.41 23.26 24.32C23.46 23.75 23.05 23.22 23.05 23.22L20.35 23.22L18.56 25.34L20.3 25.34L21.88 25.34C22.32 25.2 22.63 25.04 22.85 24.86C22.96 24.78 23.05 24.68 23.11 24.59Z" fill="#5946D7" fill-opacity="1.000000" fill-rule="evenodd"/>
			</g>
			<circle id="Ellipse 117" cx="20.000000" cy="20.000000" r="11.500000" stroke="#FFFFFF" stroke-opacity="1.000000" stroke-width="3.000000"/>
		</g>
	</g>
</svg>
